<svg xmlns="http://www.w3.org/2000/svg" viewBox="0 0 24 24">
  <g id="Layer_4" data-name="Layer 4">
    <path id="polygon75" d="M12.844,20.974H.525V3.5h11.063" class="aw-theme-iconOutline" fill="none" stroke="#464646" stroke-miterlimit="10"/>
    <g id="polygon75-2" data-name="polygon75">
      <path d="M15.686,8.74c-.044-.01-.086-.025-.129-.036l.006,7.293c.361.002.617.007.999.007l-.005-7.008c-.288-.094-.575-.191-.871-.256Z" class="aw-theme-iconOutline" fill="#464646" stroke-width="0"/>
    </g>
    <g id="polygon75-3" data-name="polygon75">
      <path d="M8.967,21.343c-.01.044-.025.086-.036.129l6.57-.006c-.534-.306-.718-.635-.816-.999l-5.462.005c-.094.288-.191.575-.256.871Z" class="aw-theme-iconOutline" fill="#464646" stroke-width="0"/>
    </g>
    <path id="path81" d="M12.958,11.45c-.061,0-.119-.027-.155-.072l-.874-1.083c-.058-.072-.05-.172.018-.236l.146-.135c.07-.065.181-.071.259-.013l.572.425,1.191-1.475c.034-.042.085-.068.142-.072h.014c.052,0,.101.018.138.052l.146.135c.064.059.075.152.027.223l-1.457,2.165c-.034.051-.092.082-.156.084h-.009Z" class="aw-theme-iconOutline" fill="#464646" stroke-width="0"/>
    <path id="path81-2" data-name="path81" d="M5.058,11.104c-.045,0-.088-.02-.114-.053l-.644-.797c-.043-.053-.037-.127.013-.174l.107-.1c.052-.048.134-.052.191-.01l.421.313.877-1.086c.025-.031.063-.05.104-.053h.01c.038,0,.074.014.101.038l.107.1c.047.044.056.112.02.165l-1.073,1.595c-.025.037-.068.06-.115.062h-.006Z" class="aw-theme-iconOutline" fill="#464646" stroke-width="0"/>
    <path id="path85" d="M12.958,15.024c-.061,0-.119-.027-.155-.072l-.874-1.083c-.058-.072-.05-.172.018-.236l.146-.135c.07-.065.181-.071.259-.013l.572.425,1.191-1.475c.034-.042.085-.068.142-.072h.014c.052,0,.101.018.138.052l.146.135c.064.059.075.152.027.223l-1.457,2.165c-.034.051-.092.082-.156.085h-.009Z" fill="#464646" stroke-width="0"/>
    <path id="polyline89" d="M6.596,12.89v2.834l-1.327-1.181-1.327,1.181v-3.07" class="aw-theme-iconOutline" fill="none" stroke="#464646" stroke-width=".6"/>
    <path id="path91" d="M8.203,10.242c-.049.045-.056.119-.017.173l.473.653-.756.281c-.063.023-.098.089-.082.154l.188.785-.807-.03c-.067-.003-.125.045-.135.11l-.127.796-.733-.337c-.061-.028-.132-.006-.167.051l-.423.687-.549-.591c-.045-.049-.119-.056-.173-.017l-.653.473-.281-.756c-.023-.063-.089-.098-.154-.082l-.785.187.031-.807c.002-.066-.045-.124-.11-.135l-.797-.127.337-.733c.028-.06.006-.132-.051-.167l-.687-.423.591-.548c.049-.045.056-.119.017-.173l-.473-.653.756-.281c.063-.023.098-.089.082-.154l-.187-.785.807.031c.066.003.125-.045.135-.11l.127-.797.733.337c.06.028.132.006.167-.051l.423-.688.549.591c.045.048.119.056.173.017l.653-.473.281.756c.023.063.089.098.154.082l.785-.187-.031.807c-.002.066.045.124.11.135l.797.127-.337.733c-.028.06-.006.132.051.167l.688.423-.592.549h0Z" fill="none" class="aw-theme-iconOutline" stroke="#464646" stroke-linejoin="round" stroke-width=".6"/>
    <path id="path93" d="M5.968,11.727c-.931.386-1.999-.056-2.385-.988s.056-1.999.988-2.384,1.999.056,2.385.988c0,0,0,0,0,.001.384.931-.058,1.997-.988,2.383h0Z" class="aw-theme-iconOutline" fill="none" stroke="#464646" stroke-linejoin="round" stroke-width=".6"/>
    <path id="line99" d="M11.484,10.86h-1.971" class="aw-theme-iconOutline" fill="none" stroke="#464646" stroke-width=".75"/>
    <path id="line101" d="M11.484,14.428h-1.971" class="aw-theme-iconOutline" fill="none" stroke="#464646" stroke-width=".75"/>
  </g>
  <g id="Layer_3" data-name="Layer 3">
    <g>
      <path id="path7038" d="M13.414.63l-.301-.06" class="aw-theme-iconOutline" fill="none" stroke="#464646" stroke-linecap="round" stroke-width=".996"/>
      <path id="path7038-4" d="M23.148.599l.324-.057" class="aw-theme-iconOutline" fill="none" stroke="#464646" stroke-linecap="round" stroke-width=".996"/>
      <path id="path1802" d="M18.269,8.056l-5.186-1.256" class="aw-theme-iconOutline" fill="none" stroke="#464646" stroke-linecap="round"/>
      <path id="path1802-3" d="M18.351,8.037l5.135-1.199" class="aw-theme-iconOutline" fill="none" stroke="#464646" stroke-linecap="round"/>
      <g>
        <path id="path17" d="M18.265,7.675c-.06,0-.109-.05-.109-.113h0c0-.561-2.231-1.092-4.591-1.092-.06,0-.109-.05-.109-.113h0V.354c0-.063.049-.113.109-.113,1.506,0,4.809.332,4.809,1.318v6.003c0,.063-.049.113-.109.113h0ZM13.673,6.245c1.305.013,3.741.255,4.482.907V1.559c0-.553-2.163-1.076-4.482-1.091v5.777Z" class="aw-theme-iconOutline" fill="#464646" stroke="#464646" stroke-width=".5"/>
        <path id="path23" d="M18.303,7.693c-.06,0-.109-.05-.109-.113h0V1.576c0-.986,3.302-1.318,4.809-1.318.06,0,.109.05.109.113v6.003c0,.063-.049.113-.109.113-2.36,0-4.591.531-4.591,1.091,0,.063-.048.113-.108.114h-.001,0ZM22.894.485c-2.319.016-4.482.539-4.482,1.091v5.59c.739-.651,3.176-.893,4.482-.905V.485Z" class="aw-theme-iconOutline" fill="#464646" stroke="#464646" stroke-width=".5"/>
        <path id="path983" d="M17.443,3.066c-.03-.009-.054-.026-.102-.071-.165-.154-.471-.313-.824-.428-.518-.168-1.139-.258-1.867-.271l-.225-.004-.032-.016c-.059-.029-.093-.082-.092-.147,0-.048.017-.083.055-.117.041-.037.066-.043.181-.043.112,0,.376.009.511.017.862.052,1.575.219,2.098.49.227.118.445.281.486.365.041.084,0,.185-.087.217-.031.012-.073.014-.099.006h0Z" class="aw-theme-iconOutline" fill="#464646" stroke="#464646" stroke-linecap="round" stroke-linejoin="round" stroke-width=".25"/>
        <path id="path971" d="M17.434,4.274c-.015-.006-.056-.037-.091-.069-.196-.176-.577-.36-.974-.471-.483-.136-.985-.204-1.628-.223-.173-.005-.327-.014-.342-.021-.07-.029-.111-.112-.091-.186.012-.046.064-.097.111-.109.016-.004.166-.004.333,0,1.211.028,2.214.296,2.753.736.098.08.134.132.135.196.001.1-.117.185-.205.148h0Z" class="aw-theme-iconOutline" fill="#464646" stroke="#464646" stroke-linecap="round" stroke-linejoin="round" stroke-width=".25"/>
        <path id="path981" d="M19.09,3.054c-.034-.014-.081-.074-.09-.114-.013-.059.013-.109.098-.187.405-.375,1.241-.651,2.253-.742.263-.024.807-.042.865-.029.029.007.059.025.083.051.031.034.037.049.037.095,0,.033-.008.068-.022.089-.038.062-.072.07-.349.078-.736.022-1.305.103-1.802.259-.353.111-.689.279-.847.424-.03.027-.066.058-.082.068-.03.02-.104.024-.144.008h0Z" class="aw-theme-iconOutline" fill="#464646" stroke="#464646" stroke-linecap="round" stroke-linejoin="round" stroke-width=".25"/>
        <path id="path979" d="M19.09,4.263c-.036-.016-.053-.034-.073-.075-.023-.048-.024-.058-.012-.101.018-.062.116-.155.273-.261.568-.38,1.514-.608,2.63-.633.254-.006.303-.004.339.011.109.046.119.2.018.272-.035.025-.048.027-.351.034-.521.013-.905.055-1.332.146-.547.116-1.042.327-1.283.548-.092.084-.129.094-.209.058h0Z" class="aw-theme-iconOutline" fill="#464646" stroke="#464646" stroke-linecap="round" stroke-linejoin="round" stroke-width=".25"/>
        <path id="path6340-4" d="M23.509,6.828l-.014-6.29" class="aw-theme-iconOutline" fill="none" stroke="#464646" stroke-linecap="round"/>
        <path id="path6340" d="M13.067,6.797l.014-6.229" class="aw-theme-iconOutline" fill="none" stroke="#464646" stroke-linecap="round" stroke-width=".999"/>
      </g>
    </g>
    <path d="M22.778,17.697c-1.042-.607-1.69-1.688-1.83-3.056-.081-.366-.346-.638-.707-.727-.451-.111-.965.079-1.312.487-.234.274-.722,1.061-.29,2.532h-5.049c-.328,0-.638.128-.871.362-.236.235-.36.546-.36.897.002.678.556,1.229,1.233,1.229h1.852c-.021.095-.03.194-.03.297.002.52.33.98.812,1.155-.033.117-.05.241-.05.371.003.519.332.979.812,1.154-.033.115-.05.24-.05.371.002.678.555,1.229,1.232,1.229h3.05l.209-.006.021-.006c.56-.056,1.089-.311,1.479-.718l.032-.034h1.039v-5.539h-1.222ZM17.978,22.556c.044-.043.1-.07.16-.078h.521v-.962h-1.255c-.154,0-.271-.126-.271-.292,0-.074.027-.141.079-.192.052-.051.12-.08.192-.08h1.253v-.962h-2.016c-.154,0-.271-.126-.271-.293,0-.072.028-.14.079-.191.052-.051.12-.08.192-.08h2.016v-.962h-5.069c-.154,0-.271-.126-.271-.292,0-.073.028-.141.079-.192.052-.051.12-.08.191-.08h6.464l-.287-.67c-.415-.968-.454-1.791-.105-2.201.14-.164.279-.193.343-.177.181,1.656,1.061,3.023,2.421,3.756l.085.045.527.011v3.615h-.487l-.316.33c-.266.274-.635.433-1.015.433h-3.05c-.154,0-.271-.126-.271-.293,0-.073.028-.141.079-.191Z" class="aw-theme-iconOutline" fill="#464646" stroke-width="0"/>
  </g>
</svg>