<?xml version="1.0" encoding="UTF-8"?>
<svg id="Layer_1" data-name="Layer 1" xmlns="http://www.w3.org/2000/svg" viewBox="0 0 16 16">
  <path d="M15.5,0H.5C.2236,0,0,.2236,0,.5v15c0,.2764.2236.5.5.5h15c.2764,0,.5-.2236.5-.5V.5c0-.2764-.2236-.5-.5-.5ZM1,1h7v14H1V1ZM15,2h-1v1h1v1h-1v1h1v1h-1v1h1v1h-1v1h1v1h-1v1h1v1h-1v1h1v1h-1v1h-1v-1h-1v1h-1v-1h-1v1h-1v-1h1v-1h-1v-1h1v-1h-1v-1h1v-1h-1v-1h1v-1h-1v-1h1v-1h-1v-1h1v-1h-1v-1h1v-1h1v1h1v-1h1v1h1v-1h1v1Z" class="aw-theme-iconOutline" fill="#464646" stroke-width="0"/>
  <rect x="10" y="2" width="1" height="1" class="aw-theme-iconOutline" fill="#464646" stroke-width="0"/>
  <rect x="10" y="12" width="1" height="1" class="aw-theme-iconOutline" fill="#464646" stroke-width="0"/>
  <rect x="10" y="8" width="1" height="1" class="aw-theme-iconOutline" fill="#464646" stroke-width="0"/>
  <rect x="10" y="4" width="1" height="1" class="aw-theme-iconOutline" fill="#464646" stroke-width="0"/>
  <rect x="10" y="10" width="1" height="1" class="aw-theme-iconOutline" fill="#464646" stroke-width="0"/>
  <rect x="10" y="6" width="1" height="1" class="aw-theme-iconOutline" fill="#464646" stroke-width="0"/>
  <rect x="11" y="13" width="1" height="1" class="aw-theme-iconOutline" fill="#464646" stroke-width="0"/>
  <rect x="11" y="7" width="1" height="1" class="aw-theme-iconOutline" fill="#464646" stroke-width="0"/>
  <rect x="11" y="3" width="1" height="1" class="aw-theme-iconOutline" fill="#464646" stroke-width="0"/>
  <rect x="11" y="5" width="1" height="1" class="aw-theme-iconOutline" fill="#464646" stroke-width="0"/>
  <rect x="11" y="11" width="1" height="1" class="aw-theme-iconOutline" fill="#464646" stroke-width="0"/>
  <rect x="11" y="9" width="1" height="1" class="aw-theme-iconOutline" fill="#464646" stroke-width="0"/>
  <rect x="12" y="12" width="1" height="1" class="aw-theme-iconOutline" fill="#464646" stroke-width="0"/>
  <rect x="12" y="2" width="1" height="1" class="aw-theme-iconOutline" fill="#464646" stroke-width="0"/>
  <rect x="12" y="6" width="1" height="1" class="aw-theme-iconOutline" fill="#464646" stroke-width="0"/>
  <rect x="12" y="4" width="1" height="1" class="aw-theme-iconOutline" fill="#464646" stroke-width="0"/>
  <rect x="12" y="10" width="1" height="1" class="aw-theme-iconOutline" fill="#464646" stroke-width="0"/>
  <rect x="12" y="8" width="1" height="1" class="aw-theme-iconOutline" fill="#464646" stroke-width="0"/>
  <rect x="13" y="11" width="1" height="1" class="aw-theme-iconOutline" fill="#464646" stroke-width="0"/>
  <rect x="13" y="13" width="1" height="1" class="aw-theme-iconOutline" fill="#464646" stroke-width="0"/>
  <rect x="13" y="5" width="1" height="1" class="aw-theme-iconOutline" fill="#464646" stroke-width="0"/>
  <rect x="13" y="9" width="1" height="1" class="aw-theme-iconOutline" fill="#464646" stroke-width="0"/>
  <rect x="13" y="7" width="1" height="1" class="aw-theme-iconOutline" fill="#464646" stroke-width="0"/>
  <rect x="13" y="3" width="1" height="1" class="aw-theme-iconOutline" fill="#464646" stroke-width="0"/>
</svg>