<?xml version="1.0" encoding="UTF-8"?>
<svg id="Layer_1" data-name="Layer 1" xmlns="http://www.w3.org/2000/svg" xmlns:xlink="http://www.w3.org/1999/xlink" viewBox="0 0 48 48">
  <defs>
    <linearGradient id="Dark_Blue_Grad" data-name="Dark Blue Grad" x1="27.8754" y1="39.6268" x2="33.6242" y2="45.3756" gradientTransform="translate(47.9999) rotate(-180) scale(1 -1)" gradientUnits="userSpaceOnUse">
      <stop offset="0" stop-color="#73b4c8"/>
      <stop offset=".1747" stop-color="#6aaec2"/>
      <stop offset=".4567" stop-color="#529db5"/>
      <stop offset=".8089" stop-color="#2b839e"/>
      <stop offset="1" stop-color="#147391"/>
    </linearGradient>
    <linearGradient id="New_Gradient_Swatch_2" data-name="New Gradient Swatch 2" x1="10.75" y1="8.632" x2="31.25" y2="29.132" gradientUnits="userSpaceOnUse">
      <stop offset="0" stop-color="#fff"/>
      <stop offset=".2284" stop-color="#fafafa"/>
      <stop offset=".4881" stop-color="#ececec"/>
      <stop offset=".7621" stop-color="#d6d5d5"/>
      <stop offset="1" stop-color="#bdbcbc"/>
    </linearGradient>
    <linearGradient id="front_-45" data-name="front -45" x1=".4409" y1="18.9411" x2="21.0591" y2="39.5593" gradientUnits="userSpaceOnUse">
      <stop offset="0" stop-color="#f2f2f2"/>
      <stop offset=".5" stop-color="#ccc"/>
      <stop offset=".6296" stop-color="#c7c7c7"/>
      <stop offset=".7792" stop-color="#b9b9b9"/>
      <stop offset=".9383" stop-color="#a2a2a2"/>
      <stop offset=".99" stop-color="#999"/>
    </linearGradient>
    <linearGradient id="linear-gradient" x1="27.0909" y1="25.0911" x2="35.4091" y2="33.4093" gradientUnits="userSpaceOnUse">
      <stop offset="0" stop-color="#ccc"/>
      <stop offset=".1856" stop-color="#c7c7c7"/>
      <stop offset=".4001" stop-color="#b9b9b9"/>
      <stop offset=".6289" stop-color="#a2a2a2"/>
      <stop offset=".8661" stop-color="#818181"/>
      <stop offset=".99" stop-color="#6e6e6e"/>
    </linearGradient>
    <linearGradient id="Dark_Blue_Grad-2" data-name="Dark Blue Grad" x1="25.0241" y1="4.9756" x2="35.9754" y2="15.9269" gradientTransform="translate(-12.9996 21.4883) scale(1 -1)" xlink:href="#Dark_Blue_Grad"/>
    <linearGradient id="Dark_Blue_Grad-3" data-name="Dark Blue Grad" x1="29.3027" y1="26.3526" x2="39.4751" y2="36.5249" gradientTransform="matrix(1,0,0,1,0,0)" xlink:href="#Dark_Blue_Grad"/>
  </defs>
  <polygon points="16.5002 47.5 18.5002 47.5 18.5002 38.0024 16.5002 37.0023 16.5002 47.5" fill="url(#Dark_Blue_Grad)" stroke="#464646" stroke-linecap="round" stroke-miterlimit="10"/>
  <polygon points="41.5 18.882 21 6.5818 .5 18.882 21 31.182 41.5 18.882" fill="url(#New_Gradient_Swatch_2)" stroke-width="0"/>
  <polygon points=".5 18.882 .5 27.3184 21 39.6184 21 31.182 .5 18.882" fill="url(#front_-45)" stroke-width="0"/>
  <polygon points="21 31.182 21 39.6184 41.5 27.3184 41.5 18.882 21 31.182" fill="url(#linear-gradient)" stroke-width="0"/>
  <polyline points=".5 18.882 21 31.182 41.5 18.882" fill="none" stroke="#6e6e6e"/>
  <polyline points="17.2474 20.6641 10.49 24.812 10.49 33.1133" fill="none" stroke="#464646"/>
  <line x1="21" y1="31.182" x2="21" y2="39.6184" fill="#3c91af" stroke="#6e6e6e" stroke-linejoin="round"/>
  <path d="m21,6.582L.5,18.882v8.4365l20.5,12.2999,20.5-12.2999v-8.4365L21,6.582Z" fill="none" stroke="#464646" stroke-miterlimit="10"/>
  <path d="m17.5002.5h0c.5519,0,1,.4481,1,1v19.4883h-2V1.5c0-.5519.4481-1,1-1Z" transform="translate(35.0004 21.4883) rotate(180)" fill="url(#Dark_Blue_Grad-2)" stroke="#464646" stroke-linecap="round" stroke-miterlimit="10"/>
  <polygon points="36.8823 20.5 46.0008 20.5 37.3 28.5 47.5 28.5 27.8995 47.5 33.0467 32.5 23.1553 32.5 36.8823 20.5" fill="url(#Dark_Blue_Grad-3)" stroke="#464646" stroke-linecap="round" stroke-linejoin="round"/>
</svg>