<?xml version="1.0" encoding="UTF-8"?>
<svg id="Layer_1" xmlns="http://www.w3.org/2000/svg" xmlns:xlink="http://www.w3.org/1999/xlink" viewBox="0 0 48 48">
  <defs>
    <linearGradient id="linear-gradient" x1="5.5" y1="39.311" x2="42.5" y2="39.311" gradientUnits="userSpaceOnUse">
      <stop offset="0" stop-color="#74b3c7"/>
      <stop offset=".177" stop-color="#6badc1"/>
      <stop offset=".464" stop-color="#539cb3"/>
      <stop offset=".822" stop-color="#2c829c"/>
      <stop offset="1" stop-color="#177490"/>
    </linearGradient>
    <linearGradient id="linear-gradient-2" x1="5.5" y1="31.121" x2="42.5" y2="31.121" gradientUnits="userSpaceOnUse">
      <stop offset="0" stop-color="#cde6eb"/>
      <stop offset="1" stop-color="#8cc3d2"/>
    </linearGradient>
    <linearGradient id="linear-gradient-3" x1="12.615" y1="29.531" x2="35.385" y2="29.531" gradientUnits="userSpaceOnUse">
      <stop offset="0" stop-color="#177490"/>
      <stop offset=".178" stop-color="#2c829c"/>
      <stop offset=".536" stop-color="#539cb3"/>
      <stop offset=".823" stop-color="#6badc1"/>
      <stop offset="1" stop-color="#74b3c7"/>
    </linearGradient>
    <linearGradient id="front_-45" data-name="front -45" x1="9.769" y1="28.382" x2="38.231" y2="28.382" gradientUnits="userSpaceOnUse">
      <stop offset="0" stop-color="#f2f2f2"/>
      <stop offset=".5" stop-color="#ccc"/>
      <stop offset=".63" stop-color="#c7c7c7"/>
      <stop offset=".779" stop-color="#b9b9b9"/>
      <stop offset=".938" stop-color="#a2a2a2"/>
      <stop offset=".99" stop-color="#999"/>
    </linearGradient>
    <linearGradient id="front_-45-2" data-name="front -45" x1="15.772" y1="13.855" x2="32.226" y2="30.309" xlink:href="#front_-45"/>
    <linearGradient id="linear-gradient-4" y1="19.371" y2="19.371" xlink:href="#linear-gradient"/>
    <linearGradient id="linear-gradient-5" y1="11.182" y2="11.182" xlink:href="#linear-gradient-2"/>
    <linearGradient id="linear-gradient-6" y1="9.592" y2="9.592" xlink:href="#linear-gradient-3"/>
  </defs>
  <path d="M5.5,36.818v-5.697c.014,2.735,1.834,5.47,5.461,7.557,7.244,4.169,18.962,4.165,26.159-.005,3.602-2.086,5.393-4.82,5.38-7.553v5.697h0c.014,2.732-1.777,5.466-5.38,7.553-7.197,4.169-18.915,4.174-26.159.005-3.619-2.083-5.439-4.81-5.461-7.539v-.018Z" fill="url(#linear-gradient)" stroke="#464646" stroke-miterlimit="10"/>
  <path d="M42.277,32.732c-.11.428-.256.852-.457,1.27,0,0,0,.001,0,.002h0c-.819,1.709-2.377,3.325-4.699,4.67-7.197,4.169-18.915,4.174-26.159.005-2.37-1.364-3.954-3.007-4.781-4.743h0s0,0,0,0c-.203-.427-.354-.859-.464-1.295-.01-.038-.02-.075-.029-.113-.109-.467-.185-.935-.187-1.405h.021c-.019-2.734,1.756-5.467,5.355-7.551,7.205-4.174,18.915-4.174,26.167,0,3.623,2.085,5.424,4.818,5.434,7.552h.023c0,.044-.01.088-.01.132,0,.002,0,.003,0,.005-.007.431-.07.861-.167,1.29-.014.061-.029.122-.045.184ZM35.275,31.882c.06-.228.099-.458.103-.688,0,0,0-.002,0-.003,0-.024.006-.047.006-.071h-.014c-.006-1.458-1.115-2.915-3.344-4.028-4.463-2.226-11.669-2.226-16.103,0-2.215,1.112-3.307,2.569-3.295,4.027h-.013c.001.251.048.501.115.749.005.02.012.04.018.06.068.232.16.463.285.691,0,0,0,0,0,0h0c.509.926,1.484,1.802,2.942,2.53,4.458,2.224,11.669,2.221,16.098-.003,1.429-.717,2.388-1.579,2.892-2.49h0s0,0,0-.001c.123-.223.213-.45.281-.678.01-.033.019-.065.028-.098Z" fill="url(#linear-gradient-2)" stroke="#464646" stroke-miterlimit="10"/>
  <path d="M12.748,31.931c.068.232.16.463.285.691,0,0,0,0,0,0h0c.185.337.455.664.765.983.529-.539,1.231-1.045,2.125-1.494,4.434-2.226,11.64-2.226,16.103,0,.918.458,1.635.976,2.174,1.527.31-.318.58-.643.765-.979h0s0,0,0-.001c.123-.223.213-.449.281-.678.01-.033.019-.065.028-.098.06-.228.098-.458.103-.688,0,0,0-.002,0-.003,0-.024.007-.047.006-.071h-.014c-.006-1.458-1.115-2.916-3.344-4.028-4.463-2.226-11.669-2.226-16.103,0-2.215,1.112-3.307,2.569-3.295,4.028h-.013c.001.251.048.5.115.749.005.02.012.04.018.061Z" fill="url(#linear-gradient-3)" stroke="#464646" stroke-miterlimit="10"/>
  <path d="M9.769,26.465v-4.382c.011,2.104,1.411,4.208,4.201,5.813,5.572,3.207,14.586,3.204,20.123-.004,2.771-1.605,4.149-3.708,4.138-5.81v4.382h0c.011,2.102-1.367,4.204-4.138,5.81-5.536,3.207-14.55,3.211-20.123.004-2.784-1.602-4.184-3.7-4.201-5.799v-.014Z" fill="url(#front_-45)" stroke="#6e6e6e" stroke-miterlimit="10"/>
  <path d="M38.094,23.18c.075-.329.123-.66.129-.992,0-.001,0-.003,0-.004,0-.034.008-.068.008-.102h-.018c-.008-2.103-1.393-4.205-4.18-5.809-5.579-3.21-14.586-3.21-20.129,0-2.768,1.604-4.134,3.706-4.119,5.809h-.016c.002.361.06.722.144,1.081.007.029.015.058.022.087.085.335.2.668.357.996,0,0,0,0,0,0h0c.636,1.336,1.855,2.599,3.678,3.649,5.572,3.207,14.586,3.204,20.123-.004,1.786-1.035,2.985-2.277,3.615-3.592h0s0-.001,0-.002c.154-.322.266-.648.351-.977.012-.047.024-.094.035-.141Z" fill="url(#front_-45-2)" stroke="#6e6e6e" stroke-miterlimit="10"/>
  <path d="M5.5,16.879v-5.697c.014,2.735,1.834,5.47,5.461,7.557,7.244,4.169,18.962,4.165,26.159-.005,3.602-2.086,5.393-4.82,5.38-7.553v5.697h0c.014,2.732-1.777,5.466-5.38,7.553-7.197,4.169-18.915,4.174-26.159.005-3.619-2.083-5.439-4.81-5.461-7.539v-.018Z" fill="url(#linear-gradient-4)" stroke="#464646" stroke-miterlimit="10"/>
  <path d="M42.277,12.792c-.11.428-.256.852-.457,1.27,0,0,0,.001,0,.002h0c-.819,1.709-2.377,3.325-4.699,4.67-7.197,4.169-18.915,4.174-26.159.005-2.37-1.364-3.954-3.007-4.781-4.743h0s0,0,0,0c-.203-.427-.354-.859-.464-1.295-.01-.038-.02-.075-.029-.113-.109-.467-.185-.935-.187-1.405h.021c-.019-2.734,1.756-5.467,5.355-7.551,7.205-4.174,18.915-4.174,26.167,0,3.623,2.085,5.424,4.818,5.434,7.552h.023c0,.044-.01.088-.01.132,0,.002,0,.003,0,.005-.007.431-.07.861-.167,1.29-.014.061-.029.122-.045.184ZM35.275,11.943c.06-.228.099-.458.103-.688,0,0,0-.002,0-.003,0-.024.006-.047.006-.071h-.014c-.006-1.458-1.115-2.915-3.344-4.028-4.463-2.226-11.669-2.226-16.103,0-2.215,1.112-3.307,2.569-3.295,4.027h-.013c.001.251.048.501.115.749.005.02.012.04.018.06.068.232.16.463.285.691,0,0,0,0,0,0h0c.509.926,1.484,1.802,2.942,2.53,4.458,2.224,11.669,2.221,16.098-.003,1.429-.717,2.388-1.579,2.892-2.49h0s0,0,0-.001c.123-.223.213-.45.281-.678.01-.033.019-.065.028-.098Z" fill="url(#linear-gradient-5)" stroke="#464646" stroke-miterlimit="10"/>
  <path d="M12.748,11.992c.068.232.16.463.285.691,0,0,0,0,0,0h0c.185.337.455.664.765.983.529-.539,1.231-1.045,2.125-1.494,4.434-2.226,11.64-2.226,16.103,0,.918.458,1.635.976,2.174,1.527.31-.318.58-.643.765-.979h0s0,0,0-.001c.123-.223.213-.449.281-.678.01-.033.019-.065.028-.098.06-.228.098-.458.103-.688,0,0,0-.002,0-.003,0-.024.007-.047.006-.071h-.014c-.006-1.458-1.115-2.916-3.344-4.028-4.463-2.226-11.669-2.226-16.103,0-2.215,1.112-3.307,2.569-3.295,4.028h-.013c.001.251.048.5.115.749.005.02.012.04.018.061Z" fill="url(#linear-gradient-6)" stroke="#464646" stroke-miterlimit="10"/>
</svg>